├é┬▒├é┬▒├é┬▒├é┬▒├é┬▒├é┬▒├é┬▒├é┬▒├é┬▒├é┬▒├é┬▒├é┬▒├é┬▒├é┬▒├é┬▒├é┬▒├é┬▒├é┬▒├é┬▒├é┬▒├é┬▒├é┬▒├é┬▒├é┬▒├é┬▒├é┬▒├é┬▒├é┬▒├é┬▒├é┬▒>>www.tornster.com<<├é┬▒├é┬▒├é┬▒├é┬▒├é┬▒├é┬▒├é┬▒├é┬▒├é┬▒├é┬▒├é┬▒├é┬▒├é┬▒├é┬▒├é┬▒├é┬▒├é┬▒├é┬▒├é┬▒├é┬▒├é┬▒├é┬▒├é┬▒├é┬▒├é┬▒├é┬▒├é┬▒├é┬▒├é┬▒├é┬▒
├é┬▒                                                                              ├é┬▒
├é┬▒ INFO:                                                                        ├é┬▒
├é┬▒                                                                              ├é┬▒
├é┬▒ General                                                                      ├é┬▒
├é┬▒ Complete name                    : 2012                                      ├é┬▒
├é┬▒ Genre                            : Action / Adventure / Drama / Sci-Fi       ├é┬▒
├é┬▒ Format                           : AVI                                       ├é┬▒
├é┬▒ Format/Info                      : Audio Video Interleave                    ├é┬▒
├é┬▒ File size                        : 1.94 GiB                                  ├é┬▒
├é┬▒ Duration                         : 2h 31mn                                   ├é┬▒
├é┬▒ Overall bit rate                 : 1 838 Kbps                                ├é┬▒
├é┬▒ Writing application              : VirtualDubMod 1.5.4.1 (build 2178/release)├é┬▒
├é┬▒ Writing library                  : VirtualDubMod build 2178/release          ├é┬▒
├é┬▒                                                                              ├é┬▒
├é┬▒ Video                                                                        ├é┬▒
├é┬▒ Format                           : MPEG-4 Visual                             ├é┬▒
├é┬▒ Format settings, BVOP            : Yes                                       ├é┬▒
├é┬▒ Format settings, QPel            : No                                        ├é┬▒
├é┬▒ Format settings, GMC             : No warppoints                             ├é┬▒
├é┬▒ Format settings, Matrix          : Default                                   ├é┬▒
├é┬▒ Codec ID                         : DX50                                      ├é┬▒
├é┬▒ Codec ID/Hint                    : DivX 5                                    ├é┬▒
├é┬▒ Duration                         : 2h 31mn                                   ├é┬▒
├é┬▒ Bit rate                         : 1 383 Kbps                                ├é┬▒
├é┬▒ Width                            : 720 pixels                                ├é┬▒
├é┬▒ Height                           : 304 pixels                                ├é┬▒
├é┬▒ Display aspect ratio             : 2.35                                      ├é┬▒
├é┬▒ Frame rate                       : 25.000 fps                                ├é┬▒
├é┬▒ Resolution                       : 24 bits                                   ├é┬▒
├é┬▒ Colorimetry                      : 4:2:0                                     ├é┬▒
├é┬▒ Scan type                        : Progressive                               ├é┬▒
├é┬▒ Bits/(Pixel*Frame)               : 0.253                                     ├é┬▒
├é┬▒ Stream size                      : 1.46 GiB (75%)                            ├é┬▒
├é┬▒ Writing library                  : DivX 2816                                 ├é┬▒
├é┬▒                                                                              ├é┬▒
├é┬▒ Audio                                                                        ├é┬▒
├é┬▒ Format                           : AC-3                                      ├é┬▒
├é┬▒ Format/Info                      : Audio Coding 3                            ├é┬▒
├é┬▒ Codec ID                         : 2000                                      ├é┬▒
├é┬▒ Duration                         : 2h 31mn                                   ├é┬▒
├é┬▒ Bit rate mode                    : Constant                                  ├é┬▒
├é┬▒ Bit rate                         : 448 Kbps                                  ├é┬▒
├é┬▒ Channel(s)                       : 6 channels                                ├é┬▒
├é┬▒ Channel positions                : Front: L C R, Surround: L R, LFE          ├é┬▒
├é┬▒ Sampling rate                    : 48.0 KHz                                  ├é┬▒
├é┬▒ Stream size                      : 485 MiB (24%)                             ├é┬▒
├é┬▒ Alignment                        : Split accross interleaves                 ├é┬▒
├é┬▒ Interleave, duration             : 80 ms (2.00 video frames)                 ├é┬▒
├é┬▒ Interleave, preload duration     : 500 ms                                    ├é┬▒
├é┬▒ Language                         : English                                   ├é┬▒
├é┬▒ Subtitles                        : English                                   ├é┬▒
├é┬▒                                                                              ├é┬▒
├é┬▒ IMDb Rating                      : 6.0/10                                    ├é┬▒
├é┬▒ IMDb URL                         : http://www.imdb.com/title/tt1190080/      ├é┬▒
├é┬▒                                                                              ├é┬▒
├é┬▒├é┬░├é┬░├é┬░├é┬░├é┬░├é┬░├é┬░├é┬░├é┬░├é┬░├é┬░├é┬░├é┬░├é┬░├é┬░├é┬░├é┬░├é┬░├é┬░├é┬░├é┬░├é┬░├é┬░├é┬░├é┬░├é┬░├é┬░├é┬░├é┬░├é┬░├é┬░├é┬░├é┬░├é┬░├é┬░├é┬░├é┬░├é┬░├é┬░├é┬░├é┬░├é┬░├é┬░├é┬░├é┬░├é┬░├é┬░├é┬░├é┬░├é┬░├é┬░├é┬░├é┬░├é┬░├é┬░├é┬░├é┬░├é┬░├é┬░├é┬░├é┬░├é┬░├é┬░├é┬░├é┬░├é┬░├é┬░├é┬░├é┬░├é┬░├é┬░├é┬░├é┬░├é┬░├é┬░├é┬░├é┬░├é┬░├é┬▒
├é┬▒                                                                              ├é┬▒
├é┬▒ Dr. Adrian Helmsley, part of a worldwide geophysical team investigating the  ├é┬▒
├é┬▒ effect on the earth of radiation from unprecedented solar storms, learns     ├é┬▒
├é┬▒ that the earth's core is heating up. He warns U.S. President Thomas Wilson   ├é┬▒
├é┬▒ that the crust of the earth is becoming unstable and that without proper     ├é┬▒
├é┬▒ preparations for saving a fraction of the world's population, the entire     ├é┬▒
├é┬▒ race is doomed.                                                              ├é┬▒
├é┬▒                                                                              ├é┬▒
├é┬▒                                                                              ├é┬▒
├é┬▒                                                                              ├é┬▒
├é┬▒                                                                              ├é┬▒
├é┬▒├é┬░├é┬░├é┬░├é┬░├é┬░├é┬░├é┬░├é┬░├é┬░├é┬░├é┬░├é┬░├é┬░├é┬░├é┬░├é┬░├é┬░├é┬░├é┬░├é┬░├é┬░├é┬░├é┬░├é┬░├é┬░├é┬░├é┬░├é┬░├é┬░├é┬░├é┬░├é┬░├é┬░├é┬░├é┬░├é┬░├é┬░├é┬░├é┬░├é┬░├é┬░├é┬░├é┬░├é┬░├é┬░├é┬░├é┬░├é┬░├é┬░├é┬░├é┬░├é┬░├é┬░├é┬░├é┬░├é┬░├é┬░├é┬░├é┬░├é┬░├é┬░├é┬░├é┬░├é┬░├é┬░├é┬░├é┬░├é┬░├é┬░├é┬░├é┬░├é┬░├é┬░├é┬░├é┬░├é┬░├é┬░├é┬░├é┬▒
├é┬▒                                                                              ├é┬▒
├é┬▒ CAST:                                                                        ├é┬▒
├é┬▒                                                                              ├é┬▒
├é┬▒ John Cusack................Jackson Curtis                                    ├é┬▒
├é┬▒ Amanda Peet................Kate Curtis                                       ├é┬▒
├é┬▒ Chiwetel Ejiofor...........Adrian Helmsley                                   ├é┬▒
├é┬▒ Thandie Newton.............Laura Wilson                                      ├é┬▒
├é┬▒ Oliver Platt...............Carl Anheuser                                     ├é┬▒
├é┬▒ Woody Harrelson............Charlie Frost                                     ├é┬▒
├é┬▒ Danny Glover...............President Thomas Wilson                           ├é┬▒  
├é┬▒                                                                              ├é┬▒
├é┬▒├é┬░├é┬░├é┬░├é┬░├é┬░├é┬░├é┬░├é┬░├é┬░├é┬░├é┬░├é┬░├é┬░├é┬░├é┬░├é┬░├é┬░├é┬░├é┬░├é┬░├é┬░├é┬░├é┬░├é┬░├é┬░├é┬░├é┬░├é┬░├é┬░├é┬░├é┬░├é┬░├é┬░├é┬░├é┬░├é┬░├é┬░├é┬░├é┬░├é┬░├é┬░├é┬░├é┬░├é┬░├é┬░├é┬░├é┬░├é┬░├é┬░├é┬░├é┬░├é┬░├é┬░├é┬░├é┬░├é┬░├é┬░├é┬░├é┬░├é┬░├é┬░├é┬░├é┬░├é┬░├é┬░├é┬░├é┬░├é┬░├é┬░├é┬░├é┬░├é┬░├é┬░├é┬░├é┬░├é┬░├é┬░├é┬░├é┬▒
├é┬▒                                                                              ├é┬▒
├é┬▒                            Please remember to seed                           ├é┬▒
├é┬▒                                                                              ├é┬▒
├é┬▒                              Standalone Enabled                              ├é┬▒
├é┬▒                                                                              ├é┬▒
├é┬▒                               www.tornster.com                               ├é┬▒
├é┬▒                                                                              ├é┬▒
├é┬▒├é┬▒├é┬▒├é┬▒├é┬▒├é┬▒├é┬▒├é┬▒├é┬▒├é┬▒├é┬▒├é┬▒├é┬▒├é┬▒├é┬▒├é┬▒├é┬▒├é┬▒├é┬▒├é┬▒├é┬▒├é┬▒├é┬▒├é┬▒├é┬▒├é┬▒├é┬▒├é┬▒├é┬▒├é┬▒├é┬▒├é┬▒├é┬▒├é┬▒├é┬▒├é┬▒├é┬▒├é┬▒├é┬▒├é┬▒├é┬▒├é┬▒├é┬▒├é┬▒├é┬▒├é┬▒├é┬▒├é┬▒├é┬▒├é┬▒├é┬▒├é┬▒├é┬▒├é┬▒├é┬▒├é┬▒├é┬▒├é┬▒├é┬▒├é┬▒├é┬▒├é┬▒├é┬▒├é┬▒├é┬▒├é┬▒├é┬▒├é┬▒├é┬▒├é┬▒├é┬▒├é┬▒├é┬▒├é┬▒├é┬▒├é┬▒├é┬▒├é┬▒├é┬▒├é┬▒